<?xml version="1.0" encoding="UTF-8" standalone="no"?>
<!-- Created with Inkscape (http://www.inkscape.org/) -->

<svg
   xmlns:dc="http://purl.org/dc/elements/1.1/"
   xmlns:cc="http://creativecommons.org/ns#"
   xmlns:rdf="http://www.w3.org/1999/02/22-rdf-syntax-ns#"
   xmlns:svg="http://www.w3.org/2000/svg"
   xmlns="http://www.w3.org/2000/svg"
   xmlns:sodipodi="http://sodipodi.sourceforge.net/DTD/sodipodi-0.dtd"
   xmlns:inkscape="http://www.inkscape.org/namespaces/inkscape"
   version="1.1"
   id="svg2"
   xml:space="preserve"
   width="4096"
   height="4096"
   viewBox="0 0 4095.9999 4095.9999"
   sodipodi:docname="banco-24-horas-logo.svg"
   inkscape:version="0.92.2 (5c3e80d, 2017-08-06)"
   inkscape:export-filename="G:\Users\suitedoalex\sites\banco-24-horas-logo-0.png"
   inkscape:export-xdpi="96"
   inkscape:export-ydpi="96"><metadata
     id="metadata8"><rdf:RDF><cc:Work
         rdf:about=""><dc:format>image/svg+xml</dc:format><dc:type
           rdf:resource="http://purl.org/dc/dcmitype/StillImage" /><dc:title></dc:title></cc:Work></rdf:RDF></metadata><defs
     id="defs6"><clipPath
       clipPathUnits="userSpaceOnUse"
       id="clipPath18"><path
         d="M 0,0 H 841.89002 V 1473.96 H 0 Z"
         id="path16"
         inkscape:connector-curvature="0" /></clipPath><clipPath
       clipPathUnits="userSpaceOnUse"
       id="clipPath26"><path
         d="m 0,1474.0156 h 841.20001 v -113.28 H 0 Z"
         id="path24"
         inkscape:connector-curvature="0" /></clipPath><clipPath
       clipPathUnits="userSpaceOnUse"
       id="clipPath42"><path
         d="M 0,28.31992 H 841.88971 V 0 H 0 Z"
         id="path40"
         inkscape:connector-curvature="0" /></clipPath><linearGradient
       x1="0"
       y1="0"
       x2="1"
       y2="0"
       gradientUnits="userSpaceOnUse"
       gradientTransform="matrix(0,-0.11260506,-0.01516393,0,1.0008202,-4.3103694)"
       spreadMethod="pad"
       id="linearGradient2204"><stop
         style="stop-opacity:1;stop-color:#413e3b"
         offset="0"
         id="stop2200" /><stop
         style="stop-opacity:1;stop-color:#92908f"
         offset="1"
         id="stop2202" /></linearGradient><clipPath
       clipPathUnits="userSpaceOnUse"
       id="clipPath8434"><path
         d="M 0,0 H 841.89002 V 1474.016 H 0 Z"
         id="path8432"
         inkscape:connector-curvature="0" /></clipPath><linearGradient
       x1="0"
       y1="0"
       x2="1"
       y2="0"
       gradientUnits="userSpaceOnUse"
       gradientTransform="matrix(0,-0.08758175,-0.01179417,0,1.0008202,-0.12169493)"
       spreadMethod="pad"
       id="linearGradient9920"><stop
         style="stop-opacity:1;stop-color:#413e3b"
         offset="0"
         id="stop9916" /><stop
         style="stop-opacity:1;stop-color:#92908f"
         offset="1"
         id="stop9918" /></linearGradient><linearGradient
       x1="0"
       y1="0"
       x2="1"
       y2="0"
       gradientUnits="userSpaceOnUse"
       gradientTransform="matrix(0,-0.11260506,-0.01516393,0,1.0008202,-3.8551522)"
       spreadMethod="pad"
       id="linearGradient10108"><stop
         style="stop-opacity:1;stop-color:#413e3b"
         offset="0"
         id="stop10104" /><stop
         style="stop-opacity:1;stop-color:#92908f"
         offset="1"
         id="stop10106" /></linearGradient><clipPath
       clipPathUnits="userSpaceOnUse"
       id="clipPath10130"><path
         d="m 0,680.31299 h 280.78601 v -215.025 H 0 Z"
         id="path10128"
         inkscape:connector-curvature="0" /></clipPath><clipPath
       clipPathUnits="userSpaceOnUse"
       id="clipPath10142"><path
         d="M 280.30676,680.80798 H 561.58673 V 465.28799 H 280.30676 Z"
         id="path10140"
         inkscape:connector-curvature="0" /></clipPath><clipPath
       clipPathUnits="userSpaceOnUse"
       id="clipPath10154"><path
         d="m 561.107,680.31299 h 280.78302 v -215.025 H 561.107 Z"
         id="path10152"
         inkscape:connector-curvature="0" /></clipPath><clipPath
       clipPathUnits="userSpaceOnUse"
       id="clipPath10166"><path
         d="M 0,465.76801 H 280.78601 V 250.24899 H 0 Z"
         id="path10164"
         inkscape:connector-curvature="0" /></clipPath><clipPath
       clipPathUnits="userSpaceOnUse"
       id="clipPath10178"><path
         d="M 280.30676,465.76807 H 561.58673 V 250.24808 H 280.30676 Z"
         id="path10176"
         inkscape:connector-curvature="0" /></clipPath><clipPath
       clipPathUnits="userSpaceOnUse"
       id="clipPath10190"><path
         d="M 561.107,465.76801 H 841.89002 V 250.24899 H 561.107 Z"
         id="path10188"
         inkscape:connector-curvature="0" /></clipPath><clipPath
       clipPathUnits="userSpaceOnUse"
       id="clipPath10202"><path
         d="M 0,250.728 H 280.78601 V 35.2081 H 0 Z"
         id="path10200"
         inkscape:connector-curvature="0" /></clipPath><clipPath
       clipPathUnits="userSpaceOnUse"
       id="clipPath10214"><path
         d="M 280.30676,250.72809 H 561.58673 V 35.2081 H 280.30676 Z"
         id="path10212"
         inkscape:connector-curvature="0" /></clipPath><clipPath
       clipPathUnits="userSpaceOnUse"
       id="clipPath10226"><path
         d="M 561.107,250.728 H 841.89002 V 35.2081 H 561.107 Z"
         id="path10224"
         inkscape:connector-curvature="0" /></clipPath><clipPath
       clipPathUnits="userSpaceOnUse"
       id="clipPath10238"><path
         d="M 0,35.688 H 841.89002 V 0 H 0 Z"
         id="path10236"
         inkscape:connector-curvature="0" /></clipPath><clipPath
       clipPathUnits="userSpaceOnUse"
       id="clipPath10286"><path
         d="m 503.28,628.50098 c 2.03299,-0.34198 4.05402,-0.75598 6.061,-1.224 -3.58001,-0.85498 -7.087,-1.86701 -10.57501,-3.02997 -1.95199,0.67999 -3.914,1.31702 -5.89798,1.89398 -4.46701,-1.28998 -8.83502,-2.89697 -13.07602,-4.78699 1.90702,-0.85199 3.78,-1.75701 5.63901,-2.68798 -3.40201,-1.71601 -6.716,-3.54999 -9.98801,-5.50202 -1.79599,1.10401 -3.60299,2.18903 -5.43798,3.23602 -4.13401,-2.35601 -8.124,-4.96899 -11.948,-7.80603 1.711,-1.27001 3.401,-2.56701 5.08798,-3.86798 -3.082,-2.406 -6.06799,-4.89898 -8.991,-7.49603 -1.587,1.43604 -3.164,2.88702 -4.763,4.31305 -3.591,-3.20203 -6.996,-6.60803 -10.19598,-10.19806 l 5.78799,-6.39294 c 10e-4,0 10e-4,9.7e-4 0.002,9.7e-4 1.47,-1.62103 2.93002,-3.25201 4.406,-4.867 1.56803,1.656 3.155,3.276 4.75,4.88599 0.023,-0.022 0.046,-0.046 0.069,-0.067 l 1.62201,1.62097 c -0.023,0.023 -0.045,0.044 -0.068,0.068 1.60998,1.59601 3.229,3.185 4.88699,4.75098 -1.61401,1.47705 -3.246,2.93604 -4.866,4.40503 2.95899,2.64398 5.98099,5.185 9.094,7.63898 1.71399,-1.33399 3.423,-2.67298 5.12601,-4.021 1.785,1.38403 3.58398,2.72504 5.389,4.052 3.34799,-2.48297 6.64798,-5.026 9.92099,-7.60498 -1.862,-1.46698 -3.70901,-2.948 -5.52301,-4.47003 1.87,-1.56799 3.72602,-3.15497 5.582,-4.74597 -0.013,-0.01 -0.024,-0.02 -0.036,-0.03 l 1.892,-1.62994 c 0.014,0.011 0.025,0.0199 0.036,0.0309 1.87601,-1.62097 3.74402,-3.24597 5.60202,-4.88397 1.875,1.656 3.78,3.28302 5.69199,4.901 3.526,-2.992 7.02099,-6.02002 10.487,-9.07898 -1.931,-1.71301 -3.85999,-3.43201 -5.767,-5.17602 1.953,-1.78803 3.897,-3.58802 5.83499,-5.391 -0.01,-0.009 -0.019,-0.018 -0.03,-0.027 l 1.96601,-1.83405 c 0.009,0.009 0.019,0.019 0.028,0.028 1.92899,-1.80597 3.85397,-3.61701 5.76901,-5.43799 1.91498,1.82098 3.83899,3.63202 5.76898,5.43799 3.53602,-3.32001 7.04499,-6.66999 10.52301,-10.04902 -1.914,-1.86401 -3.83703,-3.71795 -5.74102,-5.58898 1.932,-1.89502 3.82904,-3.83399 5.74603,-5.74299 -3.49805,-3.49102 -6.99805,-6.98303 -10.492,-10.47302 -1.93702,1.93299 -3.862,3.87702 -5.805,5.80499 -1.94201,-1.92797 -3.86999,-3.87298 -5.80502,-5.807 l -1.95898,-1.95801 c -1.93403,-1.93597 -3.87601,-3.86499 -5.80402,-5.80695 1.92801,-1.94201 3.87201,-3.867 5.80402,-5.80401 l 1.95898,-1.95899 v 0.002 c 1.93503,-1.93598 3.86301,-3.87799 5.80502,-5.80698 l 7.76496,7.76401 c 1.93304,1.93701 3.87805,3.862 5.80505,5.80401 -1.927,1.94196 -3.86902,3.87098 -5.80505,5.80695 3.492,3.49506 6.98504,6.99304 10.474,10.49103 1.91101,-1.91797 3.846,-3.81299 5.74499,-5.745 l 7.48102,7.68598 -9.8e-4,10e-4 c 1.86402,1.91297 3.737,3.82001 5.594,5.74299 -1.83203,1.89703 -3.685,3.77502 -5.54499,5.643 3.32898,3.34601 6.65399,6.69202 9.98096,10.039 1.79901,-1.81201 3.58801,-3.63202 5.34802,-5.48199 L 575.64,570.73192 c -1.643,1.76098 -3.33001,3.48699 -5.02502,5.20001 2.98102,3.01196 5.96204,6.02496 8.94,9.03998 1.59699,-1.60999 3.18299,-3.22999 4.75104,-4.88599 L 594.5,591.34497 c -3.20001,3.59003 -6.60498,6.99603 -10.19397,10.19806 -1.59802,-1.42603 -3.17206,-2.87701 -4.763,-4.31305 -2.92206,2.59705 -5.90906,5.09003 -8.99103,7.49603 1.68701,1.30298 3.37598,2.59797 5.08801,3.86798 -3.82104,2.83802 -7.81201,5.45002 -11.95001,7.80603 -1.833,-1.04699 -3.63897,-2.13201 -5.43402,-3.23602 -3.27301,1.95203 -6.58795,3.78699 -9.98999,5.50202 1.85803,0.93097 3.73303,1.83599 5.64002,2.68798 -4.24299,1.89002 -8.61298,3.49701 -13.07404,4.78699 -1.98297,-0.57696 -3.94897,-1.21399 -5.89795,-1.89398 -3.492,1.16296 -6.99701,2.17499 -10.58002,3.02997 2.00898,0.46802 4.029,0.88501 6.06403,1.224 -4.48206,0.74701 -9.026,1.13 -13.57001,1.13299 -4.54602,-0.003 -9.08502,-0.38897 -13.56802,-1.13299 m 19.13699,-1.69696 C 526,625.87 529.50702,624.784 532.99701,623.552 c -1.883,-0.69 -3.75403,-1.41699 -5.59802,-2.198 1.95202,-0.82501 3.86102,-1.71502 5.75604,-2.63501 -3.57001,-1.72601 -7.06403,-3.58898 -10.51202,-5.54199 -1.917,1.09302 -3.84198,2.17401 -5.79499,3.22302 -1.95501,-1.04901 -3.87701,-2.13 -5.79501,-3.22302 -3.44901,1.95301 -6.944,3.81598 -10.51202,5.54199 1.89401,0.91999 3.803,1.81 5.75802,2.63501 -1.84802,0.78101 -3.71701,1.508 -5.599,2.198 3.48999,1.232 6.99799,2.318 10.58298,3.25202 1.86801,-0.47602 3.728,-0.98902 5.56503,-1.57001 1.84101,0.58099 3.69898,1.09399 5.56897,1.57001 m 2.159,-22.04901 c 1.93201,1.30297 3.87402,2.59198 5.84204,3.83898 -1.927,1.18201 -3.86304,2.323 -5.80505,3.45301 3.44,2.00598 6.92504,3.92499 10.48401,5.71698 1.919,-0.96399 3.828,-1.95795 5.73498,-2.97296 1.84503,0.99298 3.69,1.96899 5.54401,2.92096 3.42199,-1.78095 6.75903,-3.67396 10.04803,-5.685 -1.80499,-1.13001 -3.60199,-2.27295 -5.39502,-3.43299 1.83801,-1.25701 3.64002,-2.54101 5.43402,-3.83502 -3.367,-2.43298 -6.68603,-4.92895 -9.97802,-7.46594 -1.86499,1.43994 -3.74299,2.86694 -5.65302,4.25 -1.93896,-1.40204 -3.85394,-2.83203 -5.763,-4.27301 -3.44696,2.57001 -6.93597,5.06897 -10.49298,7.48499 m -25.97598,13.00897 c 3.55798,-1.79199 7.04599,-3.711 10.487,-5.71698 -1.944,-1.12799 -3.879,-2.271 -5.80701,-3.45301 1.96799,-1.247 3.909,-2.53497 5.841,-3.83898 -3.55499,-2.41602 -7.04501,-4.91303 -10.492,-7.48499 -1.91001,1.44098 -3.82501,2.87201 -5.76099,4.27301 -1.914,-1.38306 -3.79001,-2.81006 -5.65899,-4.25 -3.28803,2.53699 -6.60801,5.03296 -9.97602,7.46198 1.79502,1.29797 3.59601,2.58197 5.43399,3.83898 -1.79199,1.16004 -3.58899,2.30298 -5.39398,3.43299 3.288,2.01202 6.62399,3.90405 10.04498,5.685 1.857,-0.95197 3.70502,-1.92798 5.55002,-2.91999 1.90399,1.01599 3.81198,2.00904 5.732,2.97199 M 548.328,586.599 c 1.84998,1.591 3.70697,3.17798 5.57801,4.74597 -1.81501,1.52203 -3.66498,3.00305 -5.52399,4.47003 3.27197,2.57898 6.573,5.12201 9.91901,7.60498 1.80798,-1.32696 3.604,-2.66797 5.38897,-4.052 1.70398,1.34802 3.41303,2.68701 5.12897,4.021 3.11304,-2.45398 6.13403,-4.99695 9.09302,-7.63898 -1.61896,-1.46899 -3.25,-2.92798 -4.86701,-4.40503 1.659,-1.56598 3.27802,-3.15497 4.888,-4.75 -3.01495,-2.97797 -6.02996,-5.95996 -9.04199,-8.94098 -1.71399,1.698 -3.43896,3.38098 -5.20099,5.02802 -1.79797,-1.68201 -3.58001,-3.38202 -5.37103,-5.06903 -3.27594,3.06103 -6.60199,6.05505 -9.99097,8.98602 m -25.71899,16.82098 c 3.56097,-2.46795 7.06097,-5.01098 10.51196,-7.62597 -1.91894,-1.46802 -3.83099,-2.948 -5.72198,-4.44904 1.95202,-1.54999 3.875,-3.13397 5.79101,-4.72894 -3.53497,-2.95502 -7.03399,-5.948 -10.50897,-8.97504 -1.93201,1.69299 -3.87103,3.37604 -5.83301,5.04102 -1.96002,-1.66498 -3.90002,-3.34803 -5.83203,-5.04102 -3.475,3.02704 -6.974,6.02002 -10.50998,8.97504 1.91498,1.59497 3.84,3.17895 5.793,4.72894 -1.892,1.50104 -3.80502,2.98102 -5.72302,4.45001 3.45401,2.61402 6.95203,5.15705 10.51102,7.625 1.93496,-1.32696 3.86099,-2.67096 5.76101,-4.052 1.901,1.37702 3.82599,2.72302 5.76099,4.052 m 1.97296,-38.07898 c 1.94,1.80298 3.88202,3.60297 5.83606,5.391 -1.90802,1.74401 -3.83606,3.46301 -5.77106,5.17602 3.46906,3.06 6.96302,6.08698 10.49005,9.07898 1.91401,-1.61603 3.81696,-3.242 5.69495,-4.901 1.85803,1.638 3.72504,3.263 5.59906,4.88397 3.40595,-2.96997 6.75494,-5.99896 10.05194,-9.09198 -1.81598,-1.71698 -3.64496,-3.41998 -5.45398,-5.14599 1.85004,-1.76301 3.66999,-3.55097 5.48303,-5.35102 -3.346,-3.32599 -6.69403,-6.65198 -10.03802,-9.979 -1.87097,1.85901 -3.745,3.71203 -5.64203,5.54504 -1.92499,-1.85699 -3.83099,-3.73004 -5.74896,-5.59399 -3.46698,3.362 -6.969,6.69195 -10.50104,9.98797"
         id="path10284"
         inkscape:connector-curvature="0" /></clipPath><radialGradient
       fx="398.005"
       fy="233.66701"
       cx="398.005"
       cy="233.66701"
       r="83.896698"
       gradientUnits="userSpaceOnUse"
       gradientTransform="matrix(8.7179386e-4,0,0,0.00647381,0.26928792,-8.8092575)"
       id="radialGradient10292"><stop
         style="stop-opacity:1;stop-color:#ae1f1a"
         offset="0"
         id="stop10288" /><stop
         style="stop-opacity:1;stop-color:#cb1c19"
         offset="1"
         id="stop10290" /></radialGradient><clipPath
       clipPathUnits="userSpaceOnUse"
       id="clipPath10302"><path
         d="m 503.28,628.50098 c 2.03299,-0.34198 4.05402,-0.75598 6.061,-1.224 -3.58001,-0.85498 -7.087,-1.86701 -10.57501,-3.02997 -1.95199,0.67999 -3.914,1.31702 -5.89798,1.89398 -4.46701,-1.28998 -8.83502,-2.89697 -13.07602,-4.78699 1.90702,-0.85199 3.78,-1.75701 5.63901,-2.68798 -3.40201,-1.71601 -6.716,-3.54999 -9.98801,-5.50202 -1.79599,1.10401 -3.60299,2.18903 -5.43798,3.23602 -4.13401,-2.35601 -8.124,-4.96899 -11.948,-7.80603 1.711,-1.27001 3.401,-2.56701 5.08798,-3.86798 -3.082,-2.406 -6.06799,-4.89898 -8.991,-7.49603 -1.587,1.43604 -3.164,2.88702 -4.763,4.31305 -3.591,-3.20203 -6.996,-6.60803 -10.19598,-10.19806 l 5.78799,-6.39294 c 10e-4,0 10e-4,9.7e-4 0.002,9.7e-4 1.47,-1.62103 2.93002,-3.25201 4.406,-4.867 1.56803,1.656 3.155,3.276 4.75,4.88599 0.023,-0.022 0.046,-0.046 0.069,-0.067 l 1.62201,1.62097 c -0.023,0.023 -0.045,0.044 -0.068,0.068 1.60998,1.59601 3.229,3.185 4.88699,4.75098 -1.61401,1.47705 -3.246,2.93604 -4.866,4.40503 2.95899,2.64398 5.98099,5.185 9.094,7.63898 1.71399,-1.33399 3.423,-2.67298 5.12601,-4.021 1.785,1.38403 3.58398,2.72504 5.389,4.052 3.34799,-2.48297 6.64798,-5.026 9.92099,-7.60498 -1.862,-1.46698 -3.70901,-2.948 -5.52301,-4.47003 1.87,-1.56799 3.72602,-3.15497 5.582,-4.74597 -0.013,-0.01 -0.024,-0.02 -0.036,-0.03 l 1.892,-1.62994 c 0.014,0.011 0.025,0.0199 0.036,0.0309 1.87601,-1.62097 3.74402,-3.24597 5.60202,-4.88397 1.875,1.656 3.78,3.28302 5.69199,4.901 3.526,-2.992 7.02099,-6.02002 10.487,-9.07898 -1.931,-1.71301 -3.85999,-3.43201 -5.767,-5.17602 1.953,-1.78803 3.897,-3.58802 5.83499,-5.391 -0.01,-0.009 -0.019,-0.018 -0.03,-0.027 l 1.96601,-1.83405 c 0.009,0.009 0.019,0.019 0.028,0.028 1.92899,-1.80597 3.85397,-3.61701 5.76901,-5.43799 1.91498,1.82098 3.83899,3.63202 5.76898,5.43799 3.53602,-3.32001 7.04499,-6.66999 10.52301,-10.04902 -1.914,-1.86401 -3.83703,-3.71795 -5.74102,-5.58898 1.932,-1.89502 3.82904,-3.83399 5.74603,-5.74299 -3.49805,-3.49102 -6.99805,-6.98303 -10.492,-10.47302 -1.93702,1.93299 -3.862,3.87702 -5.805,5.80499 -1.94201,-1.92797 -3.86999,-3.87298 -5.80502,-5.807 l -1.95898,-1.95801 c -1.93403,-1.93597 -3.87601,-3.86499 -5.80402,-5.80695 1.92801,-1.94201 3.87201,-3.867 5.80402,-5.80401 l 1.95898,-1.95899 v 0.002 c 1.93503,-1.93598 3.86301,-3.87799 5.80502,-5.80698 l 7.76496,7.76401 c 1.93304,1.93701 3.87805,3.862 5.80505,5.80401 -1.927,1.94196 -3.86902,3.87098 -5.80505,5.80695 3.492,3.49506 6.98504,6.99304 10.474,10.49103 1.91101,-1.91797 3.846,-3.81299 5.74499,-5.745 l 7.48102,7.68598 -9.8e-4,10e-4 c 1.86402,1.91297 3.737,3.82001 5.594,5.74299 -1.83203,1.89703 -3.685,3.77502 -5.54499,5.643 3.32898,3.34601 6.65399,6.69202 9.98096,10.039 1.79901,-1.81201 3.58801,-3.63202 5.34802,-5.48199 L 575.64,570.73192 c -1.643,1.76098 -3.33001,3.48699 -5.02502,5.20001 2.98102,3.01196 5.96204,6.02496 8.94,9.03998 1.59699,-1.60999 3.18299,-3.22999 4.75104,-4.88599 L 594.5,591.34497 c -3.20001,3.59003 -6.60498,6.99603 -10.19397,10.19806 -1.59802,-1.42603 -3.17206,-2.87701 -4.763,-4.31305 -2.92206,2.59705 -5.90906,5.09003 -8.99103,7.49603 1.68701,1.30298 3.37598,2.59797 5.08801,3.86798 -3.82104,2.83802 -7.81201,5.45002 -11.95001,7.80603 -1.833,-1.04699 -3.63897,-2.13201 -5.43402,-3.23602 -3.27301,1.95203 -6.58795,3.78699 -9.98999,5.50202 1.85803,0.93097 3.73303,1.83599 5.64002,2.68798 -4.24299,1.89002 -8.61298,3.49701 -13.07404,4.78699 -1.98297,-0.57696 -3.94897,-1.21399 -5.89795,-1.89398 -3.492,1.16296 -6.99701,2.17499 -10.58002,3.02997 2.00898,0.46802 4.029,0.88501 6.06403,1.224 -4.48206,0.74701 -9.026,1.13 -13.57001,1.13299 -4.54602,-0.003 -9.08502,-0.38897 -13.56802,-1.13299 m 19.13699,-1.69696 C 526,625.87 529.50702,624.784 532.99701,623.552 c -1.883,-0.69 -3.75403,-1.41699 -5.59802,-2.198 1.95202,-0.82501 3.86102,-1.71502 5.75604,-2.63501 -3.57001,-1.72601 -7.06403,-3.58898 -10.51202,-5.54199 -1.917,1.09302 -3.84198,2.17401 -5.79499,3.22302 -1.95501,-1.04901 -3.87701,-2.13 -5.79501,-3.22302 -3.44901,1.95301 -6.944,3.81598 -10.51202,5.54199 1.89401,0.91999 3.803,1.81 5.75802,2.63501 -1.84802,0.78101 -3.71701,1.508 -5.599,2.198 3.48999,1.232 6.99799,2.318 10.58298,3.25202 1.86801,-0.47602 3.728,-0.98902 5.56503,-1.57001 1.84101,0.58099 3.69898,1.09399 5.56897,1.57001 m 2.159,-22.04901 c 1.93201,1.30297 3.87402,2.59198 5.84204,3.83898 -1.927,1.18201 -3.86304,2.323 -5.80505,3.45301 3.44,2.00598 6.92504,3.92499 10.48401,5.71698 1.919,-0.96399 3.828,-1.95795 5.73498,-2.97296 1.84503,0.99298 3.69,1.96899 5.54401,2.92096 3.42199,-1.78095 6.75903,-3.67396 10.04803,-5.685 -1.80499,-1.13001 -3.60199,-2.27295 -5.39502,-3.43299 1.83801,-1.25701 3.64002,-2.54101 5.43402,-3.83502 -3.367,-2.43298 -6.68603,-4.92895 -9.97802,-7.46594 -1.86499,1.43994 -3.74299,2.86694 -5.65302,4.25 -1.93896,-1.40204 -3.85394,-2.83203 -5.763,-4.27301 -3.44696,2.57001 -6.93597,5.06897 -10.49298,7.48499 m -25.97598,13.00897 c 3.55798,-1.79199 7.04599,-3.711 10.487,-5.71698 -1.944,-1.12799 -3.879,-2.271 -5.80701,-3.45301 1.96799,-1.247 3.909,-2.53497 5.841,-3.83898 -3.55499,-2.41602 -7.04501,-4.91303 -10.492,-7.48499 -1.91001,1.44098 -3.82501,2.87201 -5.76099,4.27301 -1.914,-1.38306 -3.79001,-2.81006 -5.65899,-4.25 -3.28803,2.53699 -6.60801,5.03296 -9.97602,7.46198 1.79502,1.29797 3.59601,2.58197 5.43399,3.83898 -1.79199,1.16004 -3.58899,2.30298 -5.39398,3.43299 3.288,2.01202 6.62399,3.90405 10.04498,5.685 1.857,-0.95197 3.70502,-1.92798 5.55002,-2.91999 1.90399,1.01599 3.81198,2.00904 5.732,2.97199 M 548.328,586.599 c 1.84998,1.591 3.70697,3.17798 5.57801,4.74597 -1.81501,1.52203 -3.66498,3.00305 -5.52399,4.47003 3.27197,2.57898 6.573,5.12201 9.91901,7.60498 1.80798,-1.32696 3.604,-2.66797 5.38897,-4.052 1.70398,1.34802 3.41303,2.68701 5.12897,4.021 3.11304,-2.45398 6.13403,-4.99695 9.09302,-7.63898 -1.61896,-1.46899 -3.25,-2.92798 -4.86701,-4.40503 1.659,-1.56598 3.27802,-3.15497 4.888,-4.75 -3.01495,-2.97797 -6.02996,-5.95996 -9.04199,-8.94098 -1.71399,1.698 -3.43896,3.38098 -5.20099,5.02802 -1.79797,-1.68201 -3.58001,-3.38202 -5.37103,-5.06903 -3.27594,3.06103 -6.60199,6.05505 -9.99097,8.98602 m -25.71899,16.82098 c 3.56097,-2.46795 7.06097,-5.01098 10.51196,-7.62597 -1.91894,-1.46802 -3.83099,-2.948 -5.72198,-4.44904 1.95202,-1.54999 3.875,-3.13397 5.79101,-4.72894 -3.53497,-2.95502 -7.03399,-5.948 -10.50897,-8.97504 -1.93201,1.69299 -3.87103,3.37604 -5.83301,5.04102 -1.96002,-1.66498 -3.90002,-3.34803 -5.83203,-5.04102 -3.475,3.02704 -6.974,6.02002 -10.50998,8.97504 1.91498,1.59497 3.84,3.17895 5.793,4.72894 -1.892,1.50104 -3.80502,2.98102 -5.72302,4.45001 3.45401,2.61402 6.95203,5.15705 10.51102,7.625 1.93496,-1.32696 3.86099,-2.67096 5.76101,-4.052 1.901,1.37702 3.82599,2.72302 5.76099,4.052 m 1.97296,-38.07898 c 1.94,1.80298 3.88202,3.60297 5.83606,5.391 -1.90802,1.74401 -3.83606,3.46301 -5.77106,5.17602 3.46906,3.06 6.96302,6.08698 10.49005,9.07898 1.91401,-1.61603 3.81696,-3.242 5.69495,-4.901 1.85803,1.638 3.72504,3.263 5.59906,4.88397 3.40595,-2.96997 6.75494,-5.99896 10.05194,-9.09198 -1.81598,-1.71698 -3.64496,-3.41998 -5.45398,-5.14599 1.85004,-1.76301 3.66999,-3.55097 5.48303,-5.35102 -3.346,-3.32599 -6.69403,-6.65198 -10.03802,-9.979 -1.87097,1.85901 -3.745,3.71203 -5.64203,5.54504 -1.92499,-1.85699 -3.83099,-3.73004 -5.74896,-5.59399 -3.46698,3.362 -6.969,6.69195 -10.50104,9.98797"
         id="path10300"
         inkscape:connector-curvature="0" /></clipPath><radialGradient
       fx="398.005"
       fy="233.66701"
       cx="398.005"
       cy="233.66701"
       r="0"
       gradientUnits="userSpaceOnUse"
       gradientTransform="matrix(8.7179386e-4,0,0,0.00647381,0.26928792,-8.8092575)"
       id="radialGradient10308"><stop
         style="stop-opacity:1;stop-color:#cb1c19"
         offset="0"
         id="stop10304" /><stop
         style="stop-opacity:1;stop-color:#ee1217"
         offset="1"
         id="stop10306" /></radialGradient><clipPath
       clipPathUnits="userSpaceOnUse"
       id="clipPath10358"><path
         d="m 693.607,42.317 c 1.432,-0.082 6.50903,-2.029 6.492,-2.448 0.16101,0.419 0.066,0.403 0.10498,0.867 0.004,0.026 0.007,0.048 0.01,0.072 0.008,0.058 0.021,0.105 0.036,0.15 -0.31598,-0.293 -0.51898,-0.158 -1.021,0.031 -0.789,0.296 -1.67797,0.659 -2.57397,0.989 -0.90601,0.333 -1.81702,0.633 -2.638,0.794 l -0.328,0.061 c -0.026,-0.142 -0.0501,-0.305 -0.082,-0.516"
         id="path10356"
         inkscape:connector-curvature="0" /></clipPath><linearGradient
       x1="0"
       y1="0"
       x2="1"
       y2="0"
       gradientUnits="userSpaceOnUse"
       gradientTransform="matrix(0.00118919,0.02208563,0.00297416,-0.00883077,0.82851283,-11.645999)"
       spreadMethod="pad"
       id="linearGradient10364"><stop
         style="stop-opacity:1;stop-color:#5d6160"
         offset="0"
         id="stop10360" /><stop
         style="stop-opacity:1;stop-color:#fefefe"
         offset="1"
         id="stop10362" /></linearGradient><clipPath
       clipPathUnits="userSpaceOnUse"
       id="clipPath10376"><path
         d="m 689.91101,53.146 c -0.062,-0.057 -0.18201,-0.149 -0.20599,-0.231 -0.107,-0.398 0.56299,-0.203 0.70398,-0.572 0.038,-0.101 0.04,-0.184 0.016,-0.256 0.26898,-1.608 0.92999,-4.813 0.89801,-6.453 l 0.015,-0.594 c 0.31598,-0.047 0.61298,-0.009 0.92298,0.108 -0.27399,0.738 -0.383,1.388 -0.55402,2.19 -0.36499,1.708 -0.56097,3.091 -0.82696,4.79 -0.13202,0.043 -0.22498,0.133 -0.19098,0.326 0.048,0.27 0.73095,0.397 0.62396,0.659 -0.061,0.152 -0.44299,0.174 -0.66797,0.215 -0.25604,-0.039 -0.49805,-0.102 -0.73401,-0.182"
         id="path10374"
         inkscape:connector-curvature="0" /></clipPath><linearGradient
       x1="0"
       y1="0"
       x2="1"
       y2="0"
       gradientUnits="userSpaceOnUse"
       gradientTransform="matrix(-0.00154407,0.06368433,0.00857603,0.01146601,0.82194602,-11.58949)"
       spreadMethod="pad"
       id="linearGradient10382"><stop
         style="stop-opacity:1;stop-color:#adaaa8"
         offset="0"
         id="stop10378" /><stop
         style="stop-opacity:1;stop-color:#2e2d2c"
         offset="1"
         id="stop10380" /></linearGradient><clipPath
       clipPathUnits="userSpaceOnUse"
       id="clipPath10434"><path
         d="m 681.216,47.554 c -0.20703,-0.621 0.86597,-5.051 1.016,-5.836 0.29101,-1.522 0.40698,-2.641 0.763,-4.292 0.28802,-1.336 0.36798,-1.299 1.95599,-1.899 1.492,-0.56 2.89899,-1.005 4.41901,-1.584 0.57299,-0.22 3.27801,-1.353 4.492,-1.64 0.23102,0.977 -1.16302,7.816 -1.41101,9.038 -0.30097,1.477 -0.36798,1.653 -1.35999,2.52 l -0.78497,0.306 -0.0991,0.038 c -1.09198,0.4 -8.68994,3.1 -8.83099,3.246 -0.057,0.058 -0.062,0.197 -0.071,0.275 -0.042,-0.065 -0.072,-0.122 -0.089,-0.172 m 7.32099,-12.665 c -1.11701,0.348 -3.76898,1.243 -4.54297,2.071 -0.98804,1.056 -1.76599,6.131 -1.86401,7.343 -0.094,1.144 0.21801,1.154 0.96197,1.233 0.10303,0.07 0.245,0.103 0.42804,0.125 0.082,0.036 0.19196,0.041 0.34497,0.01 1.35803,-0.273 2.00598,-0.488 3.31903,-0.969 1.435,-0.528 1.69501,-0.559 2.95801,-1.322 0.15997,-0.082 0.30096,-0.164 0.42694,-0.251 0.036,-0.024 0.072,-0.05 0.10504,-0.078 0.17401,-0.13 0.32001,-0.274 0.453,-0.441 0.039,-0.051 0.078,-0.104 0.11499,-0.158 0.091,-0.133 0.17701,-0.279 0.26099,-0.444 0.62299,-1.063 2.21802,-8.139 0.97101,-7.643 l -0.13702,-0.221 c -0.112,-0.113 -0.31,-0.16 -0.56098,-0.16 -1.01098,0 -2.86499,0.756 -3.23901,0.905"
         id="path10432"
         inkscape:connector-curvature="0" /></clipPath><linearGradient
       x1="0"
       y1="0"
       x2="1"
       y2="0"
       gradientUnits="userSpaceOnUse"
       gradientTransform="matrix(-0.0136291,0.17384712,0.02341108,0.10120764,0.81901806,-11.681882)"
       spreadMethod="pad"
       id="linearGradient10440"><stop
         style="stop-opacity:1;stop-color:#adaaa8"
         offset="0"
         id="stop10436" /><stop
         style="stop-opacity:1;stop-color:#fefefe"
         offset="1"
         id="stop10438" /></linearGradient><clipPath
       clipPathUnits="userSpaceOnUse"
       id="clipPath10468"><path
         d="m 701.04401,50.979 c -0.041,-0.477 -1.25299,-1.291 -1.91901,-1.862 -0.29401,-0.252 -6.383,-5.473 -6.409,-5.529 -0.046,-0.107 0.071,-0.012 -0.20501,-0.521 L 694.362,32.243 c 0.56799,0.096 3.51202,2.952 4.16998,3.541 0.75299,0.67 3.081,2.605 3.64099,3.2 0.30103,0.319 0.62006,0.72 0.74006,1.151 0.18194,0.666 -0.52601,3.684 -0.64801,4.328 -0.37201,1.97 -0.50904,3.958 -0.99903,5.879 -0.11902,0.467 -0.077,0.702 -0.10199,0.819 -0.006,0.025 -0.02,0.052 -0.039,0.08 -0.018,-0.176 -0.038,-0.235 -0.081,-0.262 m -7.01398,-14.135 c -0.21906,1.131 -0.95203,4.805 -0.69305,5.929 0.307,1.331 2.40802,3.165 3.42102,4.046 0.39599,0.342 2.37701,2.156 2.93902,2.243 0.27295,0.043 0.41699,-0.012 0.474,-0.143 0.16797,-0.058 0.45697,-0.165 0.59601,-0.276 0.68994,-0.543 1.32397,-5.128 1.40198,-5.927 0.13299,-1.362 0.12298,-2.071 -0.75702,-3.083 1.07001,0.754 -0.25299,-0.932 -1.89398,-2.617 -1.52399,-1.566 -3.32001,-3.131 -3.724,-2.742 -0.11798,0.113 0.033,0.335 0.084,0.441 -0.038,-0.017 -0.075,-0.025 -0.11096,-0.031 -0.34705,-0.293 -0.60101,-0.437 -0.79602,-0.437 -0.48804,0 -0.61499,0.896 -0.94098,2.597"
         id="path10466"
         inkscape:connector-curvature="0" /></clipPath><linearGradient
       x1="0"
       y1="0"
       x2="1"
       y2="0"
       gradientUnits="userSpaceOnUse"
       gradientTransform="matrix(0.00779742,0.19186001,0.02583678,-0.05790246,0.82724678,-11.698485)"
       spreadMethod="pad"
       id="linearGradient10474"><stop
         style="stop-opacity:1;stop-color:#dad9d7"
         offset="0"
         id="stop10470" /><stop
         style="stop-opacity:1;stop-color:#fefefe"
         offset="1"
         id="stop10472" /></linearGradient><clipPath
       clipPathUnits="userSpaceOnUse"
       id="clipPath10494"><path
         d="m 700.20099,48.788 c 0.65802,-0.561 0.72601,-0.695 0.987,-1.666 0.38501,-1.42 0.93201,-4.233 0.79004,-5.703 l -0.12006,-0.637 c 0.02,-0.284 -0.13696,-0.501 -0.31799,-0.659 -0.11896,-0.241 -0.25995,-0.479 -0.42298,-0.711 0.11402,0.09 0.21198,0.162 0.29499,0.221 0.88,1.012 0.89001,1.721 0.75702,3.083 -0.078,0.799 -0.71204,5.384 -1.40198,5.927 -0.13904,0.111 -0.427,0.218 -0.59601,0.276 0.016,-0.037 0.026,-0.081 0.03,-0.131"
         id="path10492"
         inkscape:connector-curvature="0" /></clipPath><linearGradient
       x1="0"
       y1="0"
       x2="1"
       y2="0"
       gradientUnits="userSpaceOnUse"
       gradientTransform="matrix(0.00177687,-0.07328638,-0.00986909,-0.01319474,0.83257369,-11.584721)"
       spreadMethod="pad"
       id="linearGradient10500"><stop
         style="stop-opacity:1;stop-color:#ebebe8"
         offset="0"
         id="stop10496" /><stop
         style="stop-opacity:1;stop-color:#fefefe"
         offset="1"
         id="stop10498" /></linearGradient><linearGradient
       x1="0"
       y1="0"
       x2="1"
       y2="0"
       gradientUnits="userSpaceOnUse"
       gradientTransform="matrix(0,-0.12511654,-0.01684879,0,1.0008202,-5.5561145)"
       spreadMethod="pad"
       id="linearGradient10542"><stop
         style="stop-opacity:1;stop-color:#413e3b"
         offset="0"
         id="stop10538" /><stop
         style="stop-opacity:1;stop-color:#92908f"
         offset="1"
         id="stop10540" /></linearGradient></defs><sodipodi:namedview
     pagecolor="#ffffff"
     bordercolor="#666666"
     borderopacity="1"
     objecttolerance="10"
     gridtolerance="10"
     guidetolerance="10"
     inkscape:pageopacity="0"
     inkscape:pageshadow="2"
     inkscape:window-width="1600"
     inkscape:window-height="837"
     id="namedview4"
     showgrid="false"
     inkscape:zoom="0.030021167"
     inkscape:cx="-4574.9207"
     inkscape:cy="4050.7465"
     inkscape:window-x="-8"
     inkscape:window-y="-8"
     inkscape:window-maximized="1"
     inkscape:current-layer="g12" /><g
     id="g10"
     inkscape:groupmode="layer"
     inkscape:label="tecban"
     transform="matrix(1.3333333,0,0,-1.3333333,0,4096)"><g
       id="g12"><g
         id="g14"
         clip-path="url(#clipPath18)" /><path
         d="M 337.19938,1775.8114 H 2734.8007 V 1296.1887 H 337.19938 Z"
         style="fill:#ee1217;fill-opacity:1;fill-rule:evenodd;stroke:none;stroke-width:21.50199318"
         id="path10314"
         inkscape:connector-curvature="0"
         sodipodi:nodetypes="ccccc"
         inkscape:export-filename="G:\Users\suitedoalex\sites\banco-24-horas-logo-4.png"
         inkscape:export-xdpi="12.012006"
         inkscape:export-ydpi="12.012006" /><path
         d="m 455.92961,1562.8866 h 35.43528 c 16.85731,0 28.2745,2.4721 34.70399,6.9446 6.45003,4.4508 9.67622,12.643 9.67622,24.0398 0,12.3848 -2.96799,20.8134 -9.41925,25.5225 -6.44992,4.9671 -18.10365,7.4393 -34.96096,7.4393 h -35.43528 z m 0,-110.3053 h 35.43528 c 22.31797,0 36.93969,2.7303 43.62738,7.934 6.94467,4.7091 10.16963,14.1271 10.16963,27.7595 0,13.6311 -3.46151,22.8126 -11.15899,28.0163 -7.43929,5.2037 -21.30818,7.6758 -42.63802,7.6758 h -35.43528 z m -51.56264,-40.4024 v 253.5723 h 86.50318 c 33.97293,0 58.5073,-4.966 73.88062,-15.3734 15.35166,-10.4073 22.79229,-27.0065 22.79229,-49.3257 0,-14.3635 -3.22507,-26.0172 -9.91277,-35.1988 -6.94466,-8.6652 -17.58848,-15.6109 -31.47903,-19.8254 17.09386,-4.4507 30.48967,-12.1483 39.15486,-22.5544 8.9234,-10.6656 13.13773,-24.2979 13.13773,-40.8971 0,-10.1709 -1.72054,-19.0942 -4.70907,-27.2648 -2.70856,-8.4286 -7.43929,-15.3745 -13.63235,-21.3081 -7.67583,-7.9341 -17.84545,-13.6324 -29.73684,-17.1155 -12.14835,-3.2262 -31.73723,-4.7091 -59.0007,-4.7091 z m 322.72345,85.0192 h -5.69721 c -16.60034,0 -29.24333,-2.7316 -37.93018,-8.1717 -8.9234,-5.4607 -13.13772,-13.3959 -13.13772,-23.3074 0,-6.9458 2.23682,-12.386 6.94466,-16.8585 4.70895,-4.2143 10.66559,-6.4283 17.84668,-6.4283 10.40739,0 18.34142,3.7196 24.03974,11.632 5.46189,7.6975 8.42866,18.8577 8.42866,33.2212 v 5.9553 c 0,1.2258 -0.49463,2.7316 -0.49463,3.9574 m 7.93514,-85.0192 c -0.49463,0.2534 -0.49463,0.9894 -0.49463,1.9775 -0.74802,8.6869 -1.48399,15.8693 -1.74219,21.5664 -7.67583,-9.6534 -16.10449,-17.0939 -25.02788,-22.061 -9.18148,-4.7091 -19.58887,-7.4177 -31.22083,-7.4177 -16.62089,0 -30.25324,5.2037 -40.40243,15.6099 -10.92368,10.6655 -16.12614,24.0396 -16.12614,40.6389 0,20.5782 8.19211,36.6827 24.53314,47.3483 16.12625,10.9008 40.16588,16.1045 71.38683,16.1045 1.24745,0 3.22496,0 5.71998,-0.2414 h 5.93364 c 0,0.9894 0,1.9786 0.25339,3.4615 v 3.7196 c 0,10.9021 -1.99916,19.0942 -5.9554,24.0397 -3.71959,5.2037 -10.17085,7.4394 -18.83594,7.4394 -7.67706,0 -13.63235,-1.9775 -17.35205,-5.9336 -3.95613,-3.9779 -6.19183,-10.429 -6.94466,-19.0942 l -51.30445,0.2413 c 0.49463,18.3413 6.6877,31.479 19.33068,40.4023 12.14836,8.9234 30.98318,13.6325 56.27048,13.6325 12.38479,0 23.8032,-1.7206 33.45766,-4.9455 9.91276,-3.2251 17.84668,-7.934 24.03851,-13.8906 5.95652,-5.6984 10.17096,-11.8901 12.40656,-19.3308 2.21516,-6.9446 3.46273,-19.0712 3.46273,-35.1987 v -54.2712 c 0,-4.2143 0,-10.4062 0.74802,-18.8348 0.24123,-8.1922 1.22457,-19.8471 1.97751,-34.9623 h -44.12213 z m 80.309,0 v 143.0306 c 0,5.2037 -0.2534,10.1492 -0.49463,15.611 -0.49474,5.4402 -0.74813,11.3955 -1.24633,18.0832 h 49.32571 l 0.74802,-26.2753 c 6.68646,10.4278 14.62046,18.1049 23.78036,23.0708 9.1816,4.9455 20.3405,7.4188 33.4794,7.4188 19.3296,0 33.9513,-5.4401 43.3693,-16.5991 9.675,-10.902 14.3852,-27.7594 14.3852,-50.5732 v -113.7668 h -50.5733 v 106.5856 c 0,13.3946 -2.4734,22.8127 -6.9459,28.7475 -4.4509,5.6984 -11.8902,8.6869 -22.061,8.6869 -9.9115,0 -17.8456,-3.2251 -24.03853,-9.6762 -5.69832,-6.1919 -8.92339,-14.8571 -8.92339,-25.2861 v -109.0577 z m 344.03154,66.6779 c 0,-22.2976 -6.1918,-39.9078 -18.8348,-52.5508 -12.643,-12.1496 -30.4897,-18.8361 -53.5401,-18.8361 -24.2979,0 -43.8639,8.9234 -57.9909,25.7807 -14.3853,17.0939 -21.5663,40.1659 -21.5663,69.6447 0,28.2539 7.4392,50.3151 22.5556,66.183 14.6205,16.1057 34.7041,24.0397 60.463,24.0397 21.3312,0 37.6939,-5.6983 50.0787,-17.352 12.3849,-11.3967 18.5996,-27.0065 18.8348,-46.8318 h -48.5729 c -1.4828,11.1384 -3.7197,19.0725 -7.6975,24.2762 -3.4615,4.9671 -8.9221,7.2028 -16.341,7.2028 -8.9233,0 -15.3745,-4.4725 -19.5889,-13.6323 -4.2143,-9.4181 -6.1918,-23.3074 -6.1918,-42.4016 0,-21.8029 1.9787,-37.1775 6.1918,-46.5955 4.2144,-8.9233 11.1602,-13.8688 20.5783,-13.8688 6.923,0 12.643,2.968 16.3627,8.6663 3.6979,6.1919 5.9348,15.1152 6.6864,26.2755 z m 69.4093,22.061 c 0,-19.0943 3.2251,-33.716 10.1492,-43.6274 6.45,-10.1492 16.1263,-14.8582 28.7693,-14.8582 13.1377,0 22.7921,4.709 29.2434,14.8582 6.6865,9.9114 10.1696,24.5331 10.1696,43.6274 0,19.3294 -3.4831,33.9511 -10.1696,43.8639 -6.4513,9.6761 -16.1057,14.6421 -29.2434,14.6421 -12.643,0 -22.3193,-4.966 -28.7693,-14.6421 -6.9241,-9.9128 -10.1492,-24.5345 -10.1492,-43.8639 m -52.2926,-0.2414 c 0,27.9947 8.1706,50.314 25.0279,67.1713 16.5992,16.8369 38.6603,25.2655 66.1832,25.2655 27.9958,0 50.0568,-8.4286 66.9143,-25.2655 16.8573,-16.6209 25.0277,-39.1766 25.0277,-67.1713 0,-28.2757 -8.1704,-50.8314 -25.0277,-67.6671 -16.8575,-16.8573 -38.9185,-25.5442 -66.9143,-25.5442 -27.5229,0 -49.584,8.6869 -66.1832,25.7807 -16.8573,16.8574 -25.0279,39.1549 -25.0279,67.4306 m 202.7421,-88.5023 v 51.3032 l 14.3852,13.1377 c 69.3864,61.9688 104.0904,101.8765 104.0904,120.7126 0,8.4286 -2.4721,15.3733 -7.934,20.8352 -5.6971,5.2037 -12.3848,8.1704 -20.8134,8.1704 -10.6656,0 -18.8361,-3.2249 -24.298,-9.4179 -5.6983,-6.1918 -8.4286,-15.6098 -9.1598,-28.0164 h -46.8524 v 2.7303 c 0,21.3299 7.1811,38.4237 21.5663,51.3045 14.1271,12.1484 33.4578,18.5983 57.9909,18.5983 24.0603,0 43.6275,-5.9553 58.0127,-17.8467 14.3841,-11.8902 21.8028,-27.7581 21.8028,-47.5835 0,-18.5996 -7.6758,-37.6709 -23.2868,-57.7545 -15.3733,-20.3188 -45.1114,-48.5945 -89.2335,-84.7826 h 113.7666 v -41.3906 z m 220.1157,93.7048 h 62.2052 v 94.4372 z m 62.2052,-93.7048 v 53.0454 h -100.6289 v 49.3258 l 96.4146,143.2671 h 53.5401 v -151.9335 h 30.9843 v -40.6594 h -30.9843 v -53.0454 z m 103.8553,0 v 253.5723 h 54.7863 v -101.3819 h 96.1577 v 101.3819 h 52.8089 v -253.5723 h -52.8089 v 110.7999 h -96.1577 v -110.7999 z m 287.2664,88.7389 c 0,-19.0943 3.225,-33.716 9.6762,-43.6275 6.6864,-10.1491 16.5992,-14.8582 29.2422,-14.8582 12.9012,0 22.5557,4.7091 29.2422,14.8582 6.7093,9.9115 9.9344,24.5332 9.9344,43.6275 0,19.3294 -3.2251,33.9511 -9.9344,43.8638 -6.6865,9.6762 -16.341,14.6422 -29.2422,14.6422 -12.643,0 -22.5558,-4.966 -29.2422,-14.6422 -6.4512,-9.9127 -9.6762,-24.5344 -9.6762,-43.8638 m -52.2926,-0.2414 c 0,27.9947 8.1705,50.3139 25.0279,67.1713 16.3626,16.8369 38.4238,25.2655 66.1831,25.2655 27.7594,0 49.8204,-8.4286 66.6778,-25.2655 16.5992,-16.6209 25.0278,-39.1766 25.0278,-67.1713 0,-28.2757 -8.4286,-50.8314 -25.0278,-67.6671 -16.8574,-16.8573 -38.9184,-25.5443 -66.6778,-25.5443 -27.7593,0 -49.8205,8.687 -66.1831,25.7807 -16.8574,16.8575 -25.0279,39.155 -25.0279,67.4307 m 212.9129,-88.5023 v 121.9589 c 0,10.1492 -0.4946,19.8254 -0.736,28.7487 -0.2534,8.9234 -0.748,17.5884 -1.2475,26.0172 h 47.0889 l 1.7421,-31.4791 c 4.7091,10.6643 11.8914,18.836 21.5677,24.2967 9.6532,5.6984 22.061,8.4288 36.6815,8.4288 h 1.4839 l -0.2412,-46.3579 c -2.9885,0.4948 -5.4619,0.748 -6.9459,0.748 -1.4829,0.2414 -2.7303,0.2414 -4.2132,0.2414 -13.6323,0 -23.8032,-3.2045 -31.7372,-9.9127 -7.4405,-6.6877 -11.3967,-15.6098 -11.3967,-27.2647 v -95.4253 h -52.0561 z m 227.0387,85.0192 h -5.9337 c -16.3639,0 -29.0069,-2.7316 -37.9303,-8.1717 -8.665,-5.4607 -12.8794,-13.3959 -12.8794,-23.3075 0,-6.9457 2.2151,-12.386 6.6876,-16.8585 4.9455,-4.2143 10.9009,-6.4283 17.8456,-6.4283 10.4074,0 18.5778,3.7197 24.0397,11.632 5.4618,7.6976 8.4287,18.8578 8.4287,33.2212 v 5.9554 c 0,1.2258 -0.2534,2.7316 -0.2534,3.9574 m 7.6976,-85.0192 c -0.2534,0.2534 -0.2534,0.9894 -0.2534,1.9775 -0.9894,8.6869 -1.7193,15.8692 -1.9775,21.5664 -7.6771,-9.6534 -15.8692,-17.0939 -25.029,-22.0611 -9.4168,-4.709 -19.3296,-7.4177 -30.9832,-7.4177 -16.6005,0 -30.2545,5.2037 -40.6619,15.6099 -10.6426,10.6656 -15.8462,24.0397 -15.8462,40.6388 0,20.5783 8.1704,36.6828 24.2761,47.3484 16.3627,10.9007 40.1659,16.1044 71.3869,16.1044 1.2463,0 3.2249,0 5.9552,-0.2413 h 5.6984 c 0,0.9894 0,1.9787 0.4947,3.4615 v 3.7197 c 0,10.902 -1.9787,19.0942 -5.9566,24.0397 -4.2155,5.2037 -10.4061,7.4393 -18.836,7.4393 -7.6758,0 -13.6312,-1.9774 -17.5885,-5.9336 -3.7196,-3.9778 -6.1918,-10.4291 -6.6877,-19.0941 l -51.3249,0.2412 c 0.2534,18.3414 6.45,31.479 19.0942,40.4024 12.3848,8.9234 31.2209,13.6324 56.5069,13.6324 12.4077,0 23.802,-1.7205 33.4782,-4.9455 9.6557,-3.225 17.8262,-7.9341 24.0398,-13.8906 5.6983,-5.6983 9.9126,-11.8901 12.1496,-19.3307 2.4721,-6.9446 3.6979,-19.0713 3.6979,-35.1987 v -54.2712 c 0,-4.2143 0,-10.4062 0.5187,-18.8348 0.4948,-8.1922 0.9894,-19.8472 1.9775,-34.9623 z m 66.9142,53.0454 h 47.6053 c 0.4946,-7.934 2.9667,-13.8688 7.6758,-17.3521 4.452,-3.9573 11.6548,-5.9347 21.0728,-5.9347 8.4288,0 14.8571,1.7204 19.3308,5.2037 4.9443,3.7196 7.1811,8.9233 7.1811,14.8569 0,9.9127 -11.159,17.3533 -32.7048,22.814 -5.7189,1.7422 -9.9344,2.4732 -12.6431,3.2249 -19.5876,5.4401 -33.4794,12.1496 -41.6487,19.8254 -8.4298,7.6758 -12.6442,18.5779 -12.6442,31.4791 0,15.8679 7.1824,28.511 20.8135,38.6602 13.8918,9.9126 31.9954,15.1163 54.5294,15.1163 20.0836,0 36.1881,-4.4508 47.8418,-13.1377 11.9118,-9.1598 17.6102,-20.8146 17.6102,-36.1881 v -1.2258 h -45.1102 c -0.9894,6.9459 -3.225,11.8914 -7.4405,15.6111 -4.2143,3.225 -9.675,4.709 -17.0939,4.709 -7.4394,0 -13.3959,-1.484 -17.8467,-4.709 -4.709,-3.2262 -6.9446,-7.9352 -6.9446,-13.1377 0,-8.4287 11.3954,-15.1164 34.2093,-20.3201 5.2037,-1.2463 8.9233,-2.2357 11.8914,-2.9885 20.0823,-4.7089 34.4458,-11.3955 43.1316,-19.8254 8.9233,-7.9339 13.1376,-18.8348 13.1376,-32.209 0,-17.8467 -7.2029,-32.4684 -21.8234,-44.3802 -14.6217,-11.8914 -33.1995,-17.8468 -55.5187,-17.8468 -23.802,0 -41.8852,5.2037 -54.7864,15.1153 -13.1377,9.9344 -19.5672,24.2979 -19.8254,42.6392"
         style="fill:#fefefe;fill-opacity:1;fill-rule:evenodd;stroke:none;stroke-width:21.50199318"
         id="path10316"
         inkscape:connector-curvature="0"
         inkscape:export-filename="G:\Users\suitedoalex\sites\banco-24-horas-logo-4.png"
         inkscape:export-xdpi="12.012006"
         inkscape:export-ydpi="12.012006" /><path
         d="m 8018.3393,1088.8628 h 9.3042 c 3.3188,0 8.6206,0.6527 11.5979,-1.3246 2.3264,-1.6508 4.3439,-4.653 4.3439,-7.6283 0,-3.3189 -1.67,-6.9794 -4.653,-8.6553 -3.0099,-1.9848 -6.9776,-1.6508 -10.6381,-1.6508 h -9.9549 z m 0,-32.2257 h 12.9301 l 11.6325,-29.8988 h 19.9441 l -14.3006,33.2179 c 8.3137,3.0098 13.2738,10.9798 13.2738,19.6006 0,7.6301 -3.2844,14.9495 -9.6133,18.919 -5.9851,4.0025 -12.6228,4.0025 -19.6024,4.0025 h -31.8839 v -75.74 h 17.6197 z"
         style="fill:#ee1217;fill-opacity:1;fill-rule:evenodd;stroke:none;stroke-width:34.20965958"
         id="path10530"
         inkscape:connector-curvature="0"
         inkscape:export-filename="G:\Users\suitedoalex\sites\banco-24-horas-logo-01.png"
         inkscape:export-xdpi="38.857811"
         inkscape:export-ydpi="38.857811" /><path
         d="m 8031.7839,1122.7238 c 31.9855,0 58.1222,-26.1021 58.1222,-58.1223 0,-31.9874 -26.1367,-58.0877 -58.1222,-58.0877 -31.9857,0 -58.1223,26.1003 -58.1223,58.0877 0,32.0202 26.1366,58.1223 58.1223,58.1223 m 0,16.1127 c 40.8807,0 74.235,-33.3216 74.235,-74.235 0,-40.8808 -33.3543,-74.23492 -74.235,-74.23492 -40.8809,0 -74.235,33.35412 -74.235,74.23492 0,40.9134 33.3541,74.235 74.235,74.235 M 4107.7946,1754.6516 H 7913.4144 V 993.52025 H 4107.7946 Z"
         style="fill:#ee1217;fill-opacity:1;fill-rule:evenodd;stroke:none;stroke-width:34.20965958"
         id="path10532"
         inkscape:connector-curvature="0"
         inkscape:export-filename="G:\Users\suitedoalex\sites\banco-24-horas-logo-01.png"
         inkscape:export-xdpi="38.857811"
         inkscape:export-ydpi="38.857811" /><path
         d="m 7564.2833,1261.8187 h 75.7075 c 0.5183,-12.861 4.6184,-22.1325 11.8359,-27.8124 7.2195,-6.1907 18.5429,-9.2696 33.4559,-9.2696 13.412,0 23.7086,2.599 30.9261,8.2445 7.7319,5.6781 11.3234,13.9225 11.3234,23.7066 0,15.4293 -17.514,27.2654 -52.0334,36.0224 -8.7225,2.601 -15.4275,4.1404 -20.0805,5.1655 -30.8913,8.7588 -53.0239,19.0554 -65.8868,31.4058 -13.41,12.3485 -20.0806,29.3519 -20.0806,49.945 0,25.2478 11.3216,45.3284 32.9435,61.3049 22.1326,15.9419 50.9719,24.1865 86.5164,24.1865 31.9164,0 57.677,-7.2195 76.2179,-21.1076 18.543,-14.4369 27.8143,-32.978 27.8143,-57.1643 v -2.054 h -71.6013 c -1.5357,10.811 -5.1329,19.0554 -11.8379,24.7009 -6.6705,5.1655 -15.4602,7.7301 -27.298,7.7301 -11.8361,0 -21.1075,-2.5646 -28.325,-7.7301 -7.1849,-5.1329 -10.8129,-12.3504 -10.8129,-20.5949 0,-13.3755 18.0304,-24.1865 54.0853,-32.4309 8.2466,-2.052 14.4026,-3.6261 19.0556,-4.653 31.9204,-7.6974 54.5999,-17.9941 68.4878,-31.4041 13.8899,-12.8629 20.5949,-29.8644 20.5949,-51.4844 0,-28.3269 -11.3234,-51.5209 -34.4828,-70.0274 -23.194,-19.0899 -52.5479,-28.3269 -88.0904,-28.3269 -37.5965,0 -66.4013,8.21 -87.0289,23.6739 -20.595,15.9419 -30.8914,38.6216 -31.406,67.9735 m -106.0842,-84.4624 c -0.5183,0.5375 -0.5183,1.5356 -0.5183,3.1136 -1.5357,13.8879 -2.5626,25.2114 -3.0789,34.4827 -12.3831,-15.4293 -25.2461,-27.2654 -39.6485,-34.9972 -14.9496,-7.7302 -30.8915,-11.8706 -49.4324,-11.8706 -26.2731,0 -47.9275,8.2445 -64.3839,24.7335 -17.0015,16.9688 -25.2461,38.1109 -25.2461,64.3838 0,32.9435 12.8976,58.1896 38.6216,75.1583 25.7624,17.5141 63.8695,25.7587 113.3038,25.7587 2.052,0 5.1309,0 9.2696,-0.5183 h 9.2713 c 0,1.5356 0,3.0789 0.5182,5.6453 v 5.6781 c 0,17.5159 -3.1133,30.3789 -9.2713,38.109 -6.7032,8.2445 -16.4891,11.8379 -29.8644,11.8379 -12.3831,0 -21.62,-3.0789 -27.8126,-9.2715 -6.1924,-6.1578 -9.7839,-16.4545 -10.811,-30.379 l -81.3834,0.5185 c 0.5184,28.8375 10.2966,49.9449 30.4116,63.8694 19.5699,14.4024 49.4343,21.62 89.5954,21.62 19.5678,0 37.5963,-2.5665 53.0258,-7.7321 15.4639,-5.1309 28.325,-12.3484 38.1088,-22.1325 9.2716,-8.759 15.9766,-18.5429 19.5661,-30.379 3.628,-11.3233 5.68,-30.3787 5.68,-56.1373 v -86.0038 c 0,-6.7052 0,-16.4544 1.0173,-29.8646 0.5184,-12.863 1.5357,-31.4039 3.0791,-55.6248 h -70.0274 z m -12.3485,134.9218 h -9.2696 c -26.2729,0 -46.3554,-4.104 -60.2453,-12.8629 -13.9225,-8.757 -20.5948,-21.1057 -20.5948,-37.082 0,-10.811 3.5914,-19.568 10.8109,-26.7875 7.6975,-6.6705 16.9688,-10.2964 28.2923,-10.2964 16.4889,0 29.3865,6.1924 38.1089,18.5409 8.7572,12.3504 13.4102,29.8663 13.4102,53.0604 v 9.2696 c 0,2.0539 -0.5185,4.1059 -0.5185,6.1579 m -360.4696,-134.9218 v 193.6258 c 0,15.9763 -0.5184,31.4385 -1.0558,45.8409 -0.5183,13.9243 -1.0173,27.8124 -2.0521,41.1897 h 74.6824 l 3.0789,-49.9467 c 7.2176,17.0014 18.5411,29.8644 34.005,38.6234 15.4274,8.757 34.9954,13.4099 58.1894,13.4099 h 2.5665 l -0.5184,-73.6533 c -4.653,0.5182 -8.757,1.0173 -10.8108,1.0173 -2.5645,0.5182 -4.6512,0.5182 -6.7032,0.5182 -21.6219,0 -38.1108,-5.1655 -50.4612,-15.9418 -11.8361,-10.3311 -18.0285,-24.7335 -18.0285,-43.2764 v -151.4109 h -82.8904 z m -337.8537,140.6017 c 0,44.267 12.8976,79.8113 39.6831,106.5969 26.2403,26.7855 61.2703,40.163 105.0248,40.163 44.3014,0 79.3314,-13.3775 106.1187,-40.163 26.2385,-26.273 39.614,-62.3299 39.614,-106.5969 0,-44.8158 -13.3755,-80.8382 -39.614,-107.6237 -26.7873,-26.7855 -61.8173,-40.163 -106.1187,-40.163 -43.7545,0 -78.7845,13.3775 -105.0248,40.6755 -26.7855,26.7529 -39.6831,62.2954 -39.6831,107.1112 m 82.9249,0.5183 c 0,-30.3788 5.1655,-53.5728 15.4622,-69.5129 10.8107,-15.9764 26.2402,-23.7084 46.3208,-23.7084 20.5948,0 36.0568,7.732 46.3534,23.7084 10.8108,15.9401 15.9764,39.1341 15.9764,69.5129 0,30.3789 -5.1656,53.573 -15.9764,69.5148 -10.2966,15.462 -25.7586,23.1595 -46.3534,23.1595 -20.0806,0 -35.5101,-7.6975 -46.3208,-23.1595 -10.2967,-15.9418 -15.4622,-39.1359 -15.4622,-69.5148 M 6374.7051,1177.362 v 402.7154 h 87.0289 v -161.1948 h 152.4377 v 161.1948 h 83.9173 V 1177.362 h -83.9173 v 176.1444 H 6461.734 V 1177.362 Z m -164.7882,0 v 84.4624 h -159.6573 v 78.2718 l 152.9523,227.1182 h 84.9769 v -241.0061 h 48.9198 v -64.3839 h -48.9198 v -84.4624 z m -98.8649,148.8463 h 98.8649 v 149.8388 z M 5761.8732,1177.362 v 81.3854 l 22.6813,21.1055 c 110.1902,98.3543 165.3007,161.7093 165.3007,191.5756 0,13.3756 -4.1384,24.1865 -12.8954,32.9435 -8.759,8.2445 -19.57,12.8975 -32.9455,12.8975 -17.0014,0 -29.8664,-5.1656 -38.6234,-14.9495 -8.757,-9.784 -13.3755,-24.7335 -14.4369,-44.3014 h -74.1314 v 4.1384 c 0,33.9704 11.3235,61.2705 33.9704,81.351 22.6815,19.568 53.0604,29.8644 92.1944,29.8644 38.1108,0 69.0023,-9.7841 92.1964,-28.2905 22.6468,-19.0899 34.4829,-44.3013 34.4829,-75.7398 0,-29.3194 -12.3486,-59.731 -37.0821,-91.6494 -24.1883,-32.4309 -71.5667,-77.2448 -141.6288,-134.4092 h 180.7647 v -65.9215 z m -321.8428,140.6019 c 0,44.2668 12.8612,79.8113 39.6485,106.5968 26.273,26.7854 61.2685,40.1629 105.0574,40.1629 44.2996,0 79.297,-13.3775 106.0843,-40.1629 26.7836,-26.2729 39.6485,-62.33 39.6485,-106.5968 0,-44.816 -12.8649,-80.8384 -39.6485,-107.6239 -26.7873,-26.7855 -61.7847,-40.1629 -106.0843,-40.1629 -43.7889,0 -78.7844,13.3774 -105.0574,40.6754 -26.7873,26.7529 -39.6485,62.2954 -39.6485,107.1114 m 82.9212,0.5182 c 0,-30.3789 5.1328,-53.573 15.9418,-69.5129 10.2985,-15.9765 25.7605,-23.7086 45.8429,-23.7086 20.5931,0 36.0571,7.7321 46.3535,23.7086 10.811,15.9399 15.9419,39.134 15.9419,69.5129 0,30.379 -5.1309,53.5728 -15.9419,69.5149 -10.2964,15.462 -25.7604,23.1594 -46.3535,23.1594 -20.0824,0 -35.5444,-7.6974 -45.8429,-23.1594 -10.809,-15.9421 -15.9418,-39.1359 -15.9418,-69.5149 m -110.223,-35.0299 c 0,-35.5101 -9.7839,-63.3225 -29.8644,-83.403 -20.0825,-19.568 -48.4074,-29.8664 -84.9768,-29.8664 -38.6234,0 -69.513,13.8901 -92.16,40.6754 -22.6813,27.2654 -34.0049,63.835 -34.0049,110.7028 0,44.8141 11.8359,79.8114 35.5445,105.0574 23.1594,25.248 55.1123,38.1108 96.3002,38.1108 33.4561,0 59.7291,-9.2713 79.297,-27.8124 19.5699,-18.0285 29.3519,-42.7293 29.8644,-74.1332 h -77.2448 c -2.052,17.4813 -5.6454,30.3789 -11.836,38.5888 -5.6781,7.732 -14.4369,11.3581 -26.273,11.3581 -13.8899,0 -24.1863,-7.2195 -30.8915,-21.6546 -6.705,-14.9169 -9.7839,-37.0493 -9.7839,-67.4282 0,-34.5176 3.0789,-58.7386 9.7839,-73.6535 6.7052,-14.4369 17.516,-22.167 32.4309,-22.167 11.3236,0 20.0806,4.651 26.273,13.9225 5.6781,9.7841 9.2696,23.6739 10.2966,41.7025 z m -545.8491,-106.0845 v 227.1182 c 0,8.2446 -0.5566,15.9745 -1.0557,24.699 -0.5182,8.757 -1.0173,18.0284 -2.052,28.8393 h 78.2719 l 1.5355,-41.7022 c 10.3311,16.4889 23.1941,28.8393 37.5965,36.5694 14.4351,7.732 32.4656,11.8378 53.0585,11.8378 30.8915,0 54.0509,-8.7589 69.0004,-26.2729 15.4639,-17.4813 22.647,-44.2688 22.647,-80.3257 v -180.7629 h -80.3239 v 169.4394 c 0,21.1074 -3.5934,36.0244 -10.8109,45.3284 -7.2176,9.2369 -19.0535,13.8898 -35.03,13.8898 -15.9419,0 -28.325,-5.1653 -38.111,-15.4639 -9.2694,-9.7839 -14.4005,-23.672 -14.4005,-40.1609 v -173.0328 h -80.3238 z m -127.7387,0 c -0.5183,0.5376 -0.5183,1.5357 -0.5183,3.1135 -1.5357,13.8881 -2.5665,25.2115 -3.079,34.483 -11.8359,-15.4293 -25.2461,-27.2654 -39.6485,-34.9973 -14.4369,-7.7301 -30.8913,-11.8705 -49.4324,-11.8705 -26.2749,0 -47.8949,8.2444 -64.3838,24.7335 -17.0016,16.9687 -25.2461,38.1108 -25.2461,64.3838 0,32.9435 12.8957,58.1893 38.6215,75.1583 25.7605,17.514 63.8694,25.7586 113.3018,25.7586 2.054,0 5.1655,0 9.2715,-0.5184 h 9.2715 c 0,1.5357 0,3.0791 0.5183,5.6454 v 5.6781 c 0,17.516 -3.0789,30.379 -9.2715,38.1091 -6.1579,8.2444 -16.4545,11.8378 -29.8645,11.8378 -12.3504,0 -21.6219,-3.0789 -27.8124,-9.2715 -6.158,-6.158 -9.7841,-16.4544 -10.8109,-30.3789 l -81.3508,0.5184 c 0.5182,28.8373 10.2964,49.9449 30.3787,63.8693 19.568,14.4024 49.4326,21.6199 89.5954,21.6199 19.568,0 37.5965,-2.5663 53.0585,-7.7318 15.4295,-5.131 28.2923,-12.3485 38.1091,-22.1326 9.2713,-8.7589 15.9418,-18.5428 19.5352,-30.3789 3.6261,-11.3234 5.6781,-30.3789 5.6781,-56.1374 v -86.0039 c 0,-6.705 0,-16.4545 1.0173,-29.8644 0.5183,-12.863 2.0865,-31.4039 3.1136,-55.6249 h -70.0619 z m -12.3486,134.922 h -9.2714 c -26.2729,0 -46.3554,-4.104 -60.2433,-12.863 -13.9226,-8.757 -20.5951,-21.1056 -20.5951,-37.0821 0,-10.8108 3.5934,-19.568 10.811,-26.7873 7.7321,-6.6706 17.0016,-10.2967 28.3269,-10.2967 16.4544,0 29.3519,6.1927 38.1071,18.5411 8.759,12.3504 13.3773,29.8664 13.3773,53.0605 v 9.2695 c 0,2.054 -0.5182,4.106 -0.5182,6.158 m -512.3931,-134.922 v 402.7156 h 137.4881 c 53.573,0 92.709,-8.2447 116.8955,-24.6991 24.7333,-16.4889 36.5713,-42.762 36.5713,-78.3063 0,-22.6471 -5.1328,-41.188 -15.9765,-55.5904 -10.8109,-13.9225 -27.8124,-24.7335 -49.9469,-31.4385 27.3001,-7.2175 48.4075,-19.568 62.33,-36.0224 13.8899,-17.0036 20.5949,-38.6236 20.5949,-64.8965 0,-15.9763 -2.599,-30.377 -7.2176,-43.2744 -4.6183,-13.3775 -11.8378,-24.1865 -21.6219,-33.9704 -12.3485,-12.3504 -28.325,-21.62 -47.3804,-26.7855 -19.0554,-5.1329 -50.4575,-7.7321 -93.7338,-7.7321 z m 81.8653,64.382 h 56.1374 c 35.5444,0 58.7039,4.106 69.5475,12.3504 10.811,7.7301 15.9419,22.6815 15.9419,44.3015 0,21.62 -5.6781,36.057 -17.514,44.2668 -11.8381,8.2447 -33.9704,12.3831 -67.9754,12.3831 h -56.1374 z m 0,175.0848 h 56.1374 c 26.7855,0 44.814,3.6259 55.1104,10.8108 10.2985,7.2176 15.464,20.0805 15.464,38.1091 0,19.5679 -4.653,32.9779 -14.9494,40.71 -10.2967,7.6974 -28.8395,11.8359 -55.625,11.8359 h -56.1374 z"
         style="fill:#fefefe;fill-opacity:1;fill-rule:evenodd;stroke:none;stroke-width:34.20965958"
         id="path10534"
         inkscape:connector-curvature="0"
         inkscape:export-filename="G:\Users\suitedoalex\sites\banco-24-horas-logo-01.png"
         inkscape:export-xdpi="38.857811"
         inkscape:export-ydpi="38.857811" /><path
         d="m 7099.7852,2018.4102 c 1.0942,14.2661 10.9471,39.4775 42.762,39.4775 25.2134,0 37.2548,-13.17 41.6332,-39.4775 z m 135.9162,-32.8744 c 3.3188,58.0878 -27.4036,111.7971 -90.964,111.7971 -57.0283,0 -96.4713,-42.7276 -96.4713,-99.7557 0,-58.0876 37.2548,-98.6614 96.4713,-98.6614 42.762,0 73.448,18.6446 87.6796,63.5968 h -44.9176 c -3.3171,-12.0758 -20.833,-25.2134 -41.6678,-25.2134 -28.4959,0 -43.8563,15.3258 -46.0464,48.2366 z m -266.3579,13.1356 c 0,-30.686 -9.8856,-61.3722 -43.856,-61.3722 -31.7802,0 -46.0464,31.7802 -46.0464,60.278 0,31.7802 12.0413,60.3105 46.0464,60.3105 32.8762,0 43.856,-28.5303 43.856,-59.2163 m 1.0559,-94.281 h 49.3652 v 259.8217 h -51.519 v -95.377 h -1.1326 c -12.0414,18.6446 -33.9704,28.4978 -55.9013,28.4978 -54.8015,0 -83.2991,-47.1407 -83.2991,-97.5674 0,-52.6131 27.4036,-100.8497 84.397,-100.8497 24.1155,0 44.9504,8.759 57.0263,28.4978 h 1.0558 v -23.0232 z m -300.3608,114.0198 c 1.0941,14.2661 10.9817,39.4775 42.7638,39.4775 25.2115,0 37.2875,-13.17 41.6679,-39.4775 z m 135.9507,-32.8744 c 3.2844,58.0878 -27.4016,111.7971 -90.9986,111.7971 -56.9935,0 -96.4711,-42.7276 -96.4711,-99.7557 0,-58.0876 37.2873,-98.6614 96.4711,-98.6614 42.7639,0 73.448,18.6446 87.7142,63.5968 h -44.9503 c -3.2843,-12.0758 -20.8348,-25.2134 -41.6678,-25.2134 -28.4978,0 -43.8235,15.3258 -46.0482,48.2366 z m -377.1278,133.7241 h 62.5009 c 25.2133,0 38.3814,-10.9454 38.3814,-36.1588 0,-26.3074 -13.1681,-37.2892 -38.3814,-37.2892 h -62.5009 z m -58.0896,-214.8695 h 58.0896 v 100.8843 h 57.0263 c 28.4978,0 39.445,-12.0759 42.762,-39.4777 3.2842,-20.8348 2.1902,-46.0462 8.757,-61.4066 h 58.0876 c -10.9452,14.2642 -9.8512,44.9502 -10.9452,61.4066 -2.1884,26.3057 -9.8858,52.6132 -38.3834,60.276 v 1.0943 c 28.4976,10.9798 41.6658,34.003 41.6658,64.689 0,39.4794 -29.59,72.3539 -76.7304,72.3539 h -140.3293 z m -264.2001,129.3801 c 1.0942,20.8348 14.2642,28.4978 34.005,28.4978 17.516,0 32.8742,-3.2844 32.8742,-25.2134 0,-20.8331 -29.59,-19.7389 -60.2779,-25.2115 -32.9089,-4.3805 -64.6909,-14.2662 -64.6909,-57.0282 0,-38.3488 28.4976,-55.8994 64.6909,-55.8994 21.8945,0 46.0137,5.4746 62.4681,23.0232 1.0942,-6.5688 2.1902,-12.0414 4.3786,-17.5486 h 51.519 c -4.3786,6.6014 -6.5687,24.1174 -6.5687,41.6678 v 97.5654 c 0,44.9503 -44.9503,53.7093 -82.2031,53.7093 -41.6678,0 -85.5258,-14.2318 -88.8102,-63.5624 z m 66.8792,-57.0263 c 0,-10.9472 -1.0942,-43.8234 -41.6678,-43.8234 -16.4198,0 -31.7802,5.4726 -31.7802,24.1173 0,19.7061 15.3604,25.2133 30.686,28.4977 16.4544,2.1883 34.005,3.2844 42.762,9.8512 z m -40.5716,138.1371 h 36.1932 l -35.0992,52.6152 h -56.9936 z m -352.9779,-117.3041 c 0,30.686 10.9474,60.3105 46.0484,60.3105 35.0644,0 46.0442,-29.6245 46.0442,-60.3105 0,-29.5918 -10.9798,-60.278 -46.0442,-60.278 -35.101,0 -46.0484,30.6862 -46.0484,60.278 m -51.5189,0 c 0,-59.1838 38.3508,-98.6614 97.5673,-98.6614 59.1837,0 97.5672,39.4776 97.5672,98.6614 0,60.3105 -38.3835,99.7557 -97.5672,99.7557 -59.2165,0 -97.5673,-39.4452 -97.5673,-99.7557 m -82.2396,1.0942 c 0,-30.686 -9.8532,-61.3722 -43.8216,-61.3722 -31.8147,0 -46.0463,31.7802 -46.0463,60.278 0,31.7802 12.0432,60.3105 46.0463,60.3105 32.8744,0 43.8216,-28.5303 43.8216,-59.2163 m 1.1325,-94.281 h 49.2962 v 259.8217 h -51.519 v -95.377 h -1.0942 c -12.0414,18.6446 -33.9685,28.4978 -55.8975,28.4978 -54.8034,0 -83.3012,-47.1407 -83.3012,-97.5674 0,-52.6131 27.4038,-100.8497 84.3954,-100.8497 24.1173,0 44.9521,8.759 56.9935,28.4978 h 1.1325 v -23.0232 z m -292.6979,129.3801 c 1.0942,20.8348 14.2316,28.4978 33.9724,28.4978 17.5486,0 32.8742,-3.2844 32.8742,-25.2134 0,-20.8331 -29.5938,-19.7389 -60.2778,-25.2115 -32.9108,-4.3805 -64.691,-14.2662 -64.691,-57.0282 0,-38.3488 28.4958,-55.8994 64.691,-55.8994 21.927,0 46.0462,5.4746 62.4662,23.0232 1.094,-6.5688 2.1902,-12.0414 4.415,-17.5486 h 51.5171 c -4.3767,6.6014 -6.6015,24.1174 -6.6015,41.6678 v 97.5654 c 0,44.9503 -44.9156,53.7093 -82.207,53.7093 -41.6658,0 -85.4892,-14.2318 -88.8082,-63.5624 z m 66.8466,-57.0263 c 0,-10.9472 -1.094,-43.8234 -41.6678,-43.8234 -16.4198,0 -31.782,5.4726 -31.782,24.1173 0,19.7061 15.3622,25.2133 30.7204,28.4977 16.42,2.1883 33.9706,3.2844 42.7294,9.8512 z m -251.0299,-28.4976 c -30.6862,0 -41.6698,29.5918 -41.6698,55.8994 0,28.5303 13.172,53.7417 41.6698,53.7417 33.9684,0 44.9502,-27.4361 44.9502,-58.1222 0,-26.3055 -15.3604,-51.5189 -44.9502,-51.5189 m 93.1866,143.6117 h -48.2364 v -25.2116 h -1.0942 c -12.076,21.9272 -31.8146,30.6862 -55.8974,30.6862 -52.6497,0 -81.1455,-44.9523 -81.1455,-93.1869 0,-51.521 24.1172,-95.3426 80.0166,-95.3426 23.0232,0 46.0465,9.8512 57.0263,29.59 h 1.0942 v -25.2114 c 0,-26.3076 -13.1702,-46.0464 -41.6678,-46.0464 -18.6428,0 -33.9686,6.5688 -38.349,26.3076 h -51.5535 c 2.1883,-43.858 46.0463,-61.4067 82.2395,-61.4067 86.5856,0 97.5672,52.6477 97.5672,83.3337 z m -220.3458,72.3538 h -51.5191 v -42.762 h 51.5191 z m -51.5191,-259.8217 h 51.5191 v 187.4679 h -51.5191 z m -93.1868,0 h 51.519 v 259.8217 h -51.519 z m -143.6135,0 h 52.615 v 84.4298 c 0,32.8744 13.1701,60.2761 50.4268,60.2761 6.6013,0 14.2643,-1.0942 18.6427,-2.1885 v 48.2347 c -3.2844,1.0942 -7.6628,2.1904 -10.9799,2.1904 -25.1807,0 -50.3921,-16.422 -60.2798,-40.5392 h -1.0942 v 35.0646 h -49.3306 z m -165.5407,114.0198 c 1.0941,14.2661 10.9819,39.4775 42.7638,39.4775 25.2115,0 37.2529,-13.17 41.6659,-39.4775 z m 135.9507,-32.8744 c 3.2844,58.0878 -27.4016,111.7971 -90.9985,111.7971 -56.9936,0 -96.4712,-42.7276 -96.4712,-99.7557 0,-58.0876 37.2892,-98.6614 96.4712,-98.6614 42.7619,0 73.4479,18.6446 87.7141,63.5968 h -44.9522 c -3.2844,-12.0758 -20.8328,-25.2134 -41.6659,-25.2134 -28.4978,0 -43.858,15.3258 -46.0482,48.2366 z m -240.0829,163.3159 h -51.5208 v -56.9934 h -31.7802 v -33.9706 h 31.7802 v -111.8295 c 0,-37.2548 27.4016,-43.858 59.1818,-43.858 9.8876,0 21.929,0 30.7226,1.0942 v 40.5736 c -5.5092,-1.0942 -10.9838,-1.0942 -16.4564,-1.0942 -17.5486,0 -21.9272,4.3786 -21.9272,21.9272 v 93.1867 h 38.3836 v 33.9706 h -38.3836 z m -280.6239,-244.4613 h 52.6152 v 97.5654 c 0,38.3835 12.0432,54.8379 39.445,54.8379 24.1172,0 32.9088,-15.3604 32.9088,-47.1405 v -105.2628 h 51.5191 v 115.1158 c 0,47.1405 -13.1703,77.8267 -67.9735,77.8267 -21.929,0 -44.9522,-10.9474 -58.0898,-31.7803 h -1.094 v 26.3057 h -49.3308 z m -100.8841,0 h 58.0896 v 259.8217 h -58.0896 z"
         style="fill:#000000;fill-opacity:1;fill-rule:evenodd;stroke:none;stroke-width:34.20965958"
         id="path10536"
         inkscape:connector-curvature="0"
         inkscape:export-filename="G:\Users\suitedoalex\sites\banco-24-horas-logo-01.png"
         inkscape:export-xdpi="38.857811"
         inkscape:export-ydpi="38.857811" /></g></g></svg>